<!DOCTYPE html> 

<svg class="defs-only" xmlns="http://www.w3.org/2000/svg" viewBox="0 0 320 90" >

  <g id="SvgjsG1370" featurekey="symbolFeature-0" transform="matrix(1.0526315789473684,0,0,1.0526315789473684,-2.631578947368421,-11.267690156635485)" fill="#FF5876">

    <g xmlns="http://www.w3.org/2000/svg" class="st0" style="display: none;">
      <path class="st1" d="M63,22V5.7C63,3.9,61.8,3,60.1,3H39.9C38.2,3,37,3.9,37,5.7V22h-7v64.7C30,92.6,34.5,98,40.4,98h19.1   C65.5,98,70,92.6,70,86.7V22H63z M39,5.7C39,5.1,39.4,5,39.9,5h20.1C60.6,5,61,5.1,61,5.7V22H39V5.7z" style="display: inline;"></path>
      <path class="st2" d="M59.3,46h-4c-0.6,0-1,0.4-1,1v4c0,0.6,0.4,1,1,1h1.2v5.9l-5.5,4V46.4h1.4c0.4,0,0.7-0.1,0.7-0.5   c0.2-0.3,0.2-0.7,0.1-1l-2.3-4.7c-0.1-0.4-0.5-0.6-0.9-0.6c-0.4,0-0.7,0.2-0.9,0.6l-2.3,4.7c-0.1,0.3-0.1,0.7,0.1,1   c0.2,0.3,0.5,0.5,0.9,0.5h1.4v19.9l-5.5-4v-6.3c1.1-0.4,1.9-1.5,1.9-2.7c0-1.6-1.3-2.9-2.9-2.9c-1.6,0-2.9,1.3-2.9,2.9   c0,1.2,0.8,2.3,1.9,2.7v6.8c0,0.3,0.2,0.6,0.4,0.8l7.1,5.2v2.5c-1.7,0.4-3,2-3,3.9c0,2.2,1.8,4,4,4c2.2,0,4-1.8,4-4   c0-1.9-1.3-3.4-3-3.9v-7.1l7-5.1c0.3-0.2,0.4-0.5,0.4-0.8v-6.4h0.9c0.6,0,1-0.5,1-1v-4C60.3,46.4,59.9,46,59.3,46z" style="display: inline; fill: #FF5876;"></path>
    </g>
    <g xmlns="http://www.w3.org/2000/svg" class="st0" style="display: none;">
      <path class="st1" d="M50,97.5c-11.8,0-21.3-9.6-21.3-21.3V50.3C28.7,38.5,38.2,29,50,29s21.3,9.6,21.3,21.3v25.9   C71.3,87.9,61.8,97.5,50,97.5z M50,32.9c-9.6,0-17.4,7.8-17.4,17.4v25.9c0,9.6,7.8,17.4,17.4,17.4s17.4-7.8,17.4-17.4V50.3   C67.4,40.7,59.6,32.9,50,32.9z" style="display: inline;"></path>
      <path class="st1" d="M50,50.5L50,50.5c-1.4,0-2.5-1.1-2.5-2.5v-5.9c0-1.4,1.1-2.5,2.5-2.5h0c1.4,0,2.5,1.1,2.5,2.5V48   C52.5,49.4,51.4,50.5,50,50.5z" style="display: inline;"></path>
      <path class="st1" d="M50,31.9c-0.5,0-1-0.4-1-1V20.2c0-2.7,2.2-4.9,4.9-4.9h2.9c1.6,0,3-1.3,3-3V3.5c0-0.5,0.4-1,1-1   c0.5,0,1,0.4,1,1v8.8c0,2.7-2.2,4.9-4.9,4.9h-2.9c-1.6,0-3,1.3-3,3v10.8C51,31.5,50.5,31.9,50,31.9z" style="display: inline;"></path>
    </g>
    <g xmlns="http://www.w3.org/2000/svg" class="st0" style="display: none;">
      <g class="st1" style="display: inline;">
        <path d="M73,77.9c-13.5,0-24.5-11-24.5-24.5C48.5,39.9,59.5,29,73,29s24.5,11,24.5,24.5C97.5,67,86.5,77.9,73,77.9z M73,33.5    c-11,0-20,9-20,20c0,11,9,20,20,20s20-9,20-20C93,42.4,84,33.5,73,33.5z"></path>
        <rect x="70.2" y="25.6" width="5.7" height="5.7"></rect>
        <path d="M78.4,26.9H67.6c-0.9,0-1.6-0.7-1.6-1.6v-1.6c0-0.9,0.7-1.6,1.6-1.6h10.9c0.9,0,1.6,0.7,1.6,1.6v1.6    C80.1,26.2,79.3,26.9,78.4,26.9z"></path>
        <circle cx="73" cy="53.5" r="3.5"></circle>
        <path d="M83.9,41.9c0,0-0.5,0.9-1.3,2.2c-0.4,0.7-0.8,1.4-1.3,2.2c-0.5,0.8-1.1,1.6-1.6,2.5c-0.6,0.8-1,1.8-1.6,2.5    c-0.6,0.7-1.4,1.2-2.1,1.5c-0.7,0.3-1.4,0.6-2,0.7c-0.5,0.1-0.9,0.1-0.9,0.1l-0.3-0.3c0,0,0-0.4,0-0.9c0-0.5,0.2-1.2,0.5-2    c0.3-0.7,0.7-1.6,1.3-2.2c0.7-0.7,1.6-1.1,2.4-1.8c0.8-0.6,1.6-1.3,2.3-1.8c0.7-0.6,1.5-1.1,2.1-1.5c1.2-0.9,2.1-1.4,2.1-1.4    L83.9,41.9z"></path>
        <g>
          <path d="M57.8,55.1h-1.1c-0.6,0-1.1-0.5-1.1-1.1v-1.1c0-0.6,0.5-1.1,1.1-1.1h1.1c0.6,0,1.1,0.5,1.1,1.1V54     C58.9,54.6,58.4,55.1,57.8,55.1z"></path>
          <path d="M89.3,55.1h-1.1c-0.6,0-1.1-0.5-1.1-1.1v-1.1c0-0.6,0.5-1.1,1.1-1.1h1.1c0.6,0,1.1,0.5,1.1,1.1V54     C90.4,54.6,89.9,55.1,89.3,55.1z"></path>
          <path d="M71.4,38.3v-1.1c0-0.6,0.5-1.1,1.1-1.1h1.1c0.6,0,1.1,0.5,1.1,1.1v1.1c0,0.6-0.5,1.1-1.1,1.1h-1.1     C71.9,39.3,71.4,38.9,71.4,38.3z"></path>
          <path d="M71.4,69.7v-1.1c0-0.6,0.5-1.1,1.1-1.1h1.1c0.6,0,1.1,0.5,1.1,1.1v1.1c0,0.6-0.5,1.1-1.1,1.1h-1.1     C71.9,70.8,71.4,70.3,71.4,69.7z"></path>
        </g>
      </g>
      <path class="st1" d="M41.9,44.3H20.1c-1.2,0-2.2-1-2.2-2.2s1-2.2,2.2-2.2h21.8c1.2,0,2.2,1,2.2,2.2S43.1,44.3,41.9,44.3z" style="display: inline;"></path>
      <path class="st1" d="M41.9,55.2H12.2c-1.2,0-2.2-1-2.2-2.2c0-1.2,1-2.2,2.2-2.2h29.6c1.2,0,2.2,1,2.2,2.2   C44.1,54.2,43.1,55.2,41.9,55.2z" style="display: inline;"></path>
      <path class="st1" d="M41.9,66.1H4.7c-1.2,0-2.2-1-2.2-2.2c0-1.2,1-2.2,2.2-2.2h37.1c1.2,0,2.2,1,2.2,2.2   C44.1,65,43.1,66.1,41.9,66.1z" style="display: inline;"></path>
    </g>
    <g xmlns="http://www.w3.org/2000/svg" class="st0" style="display: none;">
      <path class="st1" d="M55,14.5V11h2.9c2.3,0,4.2-1.7,4.2-4s-1.9-4-4.2-4H42.2C39.9,3,38,4.7,38,7s1.9,4,4.2,4H45v3.5   c-19,2.2-34.8,18-36.5,37.5C6.1,78,27.8,99.6,53.8,97.3c19.9-1.8,36-17.8,37.8-37.7C93.6,36.7,77,17.1,55,14.5z M46.3,89.7   C30.5,88,17.9,75.3,16.2,59.6c-2.3-21.6,15.9-39.8,37.5-37.5c15.8,1.7,28.4,14.3,30.1,30.1C86.1,73.8,67.9,92,46.3,89.7z" style="display: inline;"></path>
      <path class="st1" d="M68,35.7c0,0-1.5,0.9-3.6,2.5c-1.1,0.7-2.3,1.6-3.6,2.6c-1.3,1-2.6,2-3.9,3.1c-1.3,1.1-2.9,1.9-4,3   c-0.9,1-1.5,2.1-2,3.2C50.6,50,50.3,50,50,50c-3.2,0-5.9,2.6-5.9,5.9c0,3.2,2.6,5.9,5.9,5.9c3.2,0,5.9-2.6,5.9-5.9   c0-0.5-0.1-0.9-0.2-1.4c1-0.6,2.1-1.3,3-2.3c1-1.2,1.7-2.9,2.7-4.3c0.9-1.4,1.9-2.8,2.8-4.2c0.9-1.4,1.6-2.7,2.3-3.8   c1.3-2.2,2.1-3.8,2.1-3.8L68,35.7z" style="display: inline;"></path>
      <path class="st1" d="M23.3,58.6L23.3,58.6c-1.5,0-2.8-1.2-2.8-2.8v0c0-1.5,1.2-2.8,2.8-2.8h0c1.5,0,2.8,1.2,2.8,2.8v0   C26,57.4,24.8,58.6,23.3,58.6z" style="display: inline;"></path>
      <path class="st1" d="M76.7,58.6L76.7,58.6c-1.5,0-2.8-1.2-2.8-2.8v0c0-1.5,1.2-2.8,2.8-2.8h0c1.5,0,2.8,1.2,2.8,2.8v0   C79.5,57.4,78.3,58.6,76.7,58.6z" style="display: inline;"></path>
      <path class="st1" d="M47.2,29.1L47.2,29.1c0-1.5,1.2-2.8,2.8-2.8h0c1.5,0,2.8,1.2,2.8,2.8v0c0,1.5-1.2,2.8-2.8,2.8h0   C48.5,31.9,47.2,30.7,47.2,29.1z" style="display: inline;"></path>
      <path class="st1" d="M47.2,82.6L47.2,82.6c0-1.5,1.2-2.8,2.8-2.8h0c1.5,0,2.8,1.2,2.8,2.8v0c0,1.5-1.2,2.8-2.8,2.8h0   C48.5,85.4,47.2,84.1,47.2,82.6z" style="display: inline;"></path>
    </g>
    <g xmlns="http://www.w3.org/2000/svg" class="st0" style="display: none;">
      <g class="st1" style="display: inline;">
        <path d="M74.8,89.3H63.3c-1.3,0-2.5-1-2.7-2.3l-0.8-5c-5.1,0.5-11,0.6-16.5-0.1L42.6,87c-0.2,1.3-1.4,2.3-2.7,2.3H28.3    c-1.5,0-2.7-1.2-2.7-2.7V76c-4.3-2.6-7.7-6-10.2-10.1L4.4,62.5c-1.1-0.4-1.9-1.4-1.9-2.6V45.7c0-1.2,0.8-2.2,1.9-2.6l8-2.5    c1.9-6.2,5.9-10.5,12.3-13.2c0.8-10.6,3.1-15.9,7.2-16.6c4.2-0.8,8.2,3.4,12.7,13.2c2-0.1,4.3-0.1,6.7-0.1    c26.7,0,40.2,9.8,40.2,29.3c0,11.3-4.7,19.4-13.9,24.2v9.2C77.6,88.1,76.3,89.3,74.8,89.3z M65.6,83.9h6.5v-8.2    c0-1.1,0.6-2,1.6-2.5C82,69.4,86,62.8,86,53.1c0-5.9,0-23.8-34.7-23.8c-3.1,0-5.9,0.1-8.3,0.2c-1.2,0.1-2.2-0.6-2.6-1.6    c-4-9.3-6.8-11.6-7.5-11.7c-0.5,0.3-2.3,3.4-2.8,13.3c-0.1,1.1-0.8,2.1-1.8,2.4c-6.1,2.2-9.6,5.8-10.9,11.5    c-0.2,0.9-0.9,1.7-1.8,2L8,47.7v10.2l10.2,3.2c0.7,0.2,1.2,0.7,1.6,1.3c2.2,4,5.5,7.3,10,9.7c0.9,0.5,1.4,1.4,1.4,2.4v9.4h6.5    l0.8-5.5c0.1-0.7,0.5-1.4,1.1-1.8c0.6-0.4,1.3-0.6,2.1-0.5c6.7,1.2,14.2,1,20.2,0.2c1.5-0.2,2.8,0.8,3.1,2.3L65.6,83.9z"></path>
      </g>
      <path class="st1" d="M88.5,46.1c-0.3,0-0.6,0-0.9-0.1c-1-0.2-1.6-1.2-1.4-2.2c0.2-1,1.2-1.6,2.2-1.4c0.6,0.1,1.5-0.6,2.3-1.8   c2.1-3.2,3.2-7,3.2-10.8c0-1,0.9-1.8,1.8-1.8c1,0,1.8,0.8,1.8,1.8c0,4.5-1.4,9-3.8,12.8C92.2,44.8,90.4,46.1,88.5,46.1z" style="display: inline;"></path>
      <g class="st1" style="display: inline;">
        <path d="M52.5,69.9h-2.1v-3.5c-2.9-0.3-5-0.8-6.4-1.5c-2.5-1.4-3.7-3.7-3.6-7h5.9c0.2,1.5,0.5,2.5,0.8,3c0.6,0.8,1.7,1.3,3.3,1.5    v-7.6l-1.8-0.4c-2.8-0.7-4.7-1.6-5.9-2.8c-1.1-1.2-1.7-2.6-1.7-4.3c0-1.1,0.2-2.1,0.7-3c0.4-0.9,1.1-1.7,1.9-2.3    c1-0.8,2.2-1.4,3.4-1.7c0.8-0.2,1.9-0.4,3.4-0.4v-2.4h2.1v2.4c2.3,0.2,4.2,0.6,5.5,1.4c2.4,1.3,3.7,3.3,3.8,6.2h-5.7    c-0.1-1.1-0.3-1.8-0.6-2.3c-0.5-0.8-1.5-1.3-3-1.4v6.8c3.4,1,5.7,1.8,6.9,2.6c1.9,1.2,2.9,3,2.9,5.3c0,3-1.3,5.2-4,6.5    c-1.6,0.8-3.6,1.3-5.8,1.5V69.9z M50.4,43.8c-1.3,0-2.2,0.3-2.8,0.8c-0.6,0.5-0.9,1.2-0.9,2.2c0,1,0.5,1.8,1.4,2.4    c0.5,0.3,1.3,0.6,2.3,0.9V43.8z M52.5,62.3c1.1-0.1,2-0.3,2.5-0.6c0.9-0.5,1.4-1.5,1.4-2.8c0-1-0.4-1.8-1.3-2.4    c-0.5-0.3-1.4-0.7-2.6-1.1V62.3z"></path>
      </g>
    </g>
    <g xmlns="http://www.w3.org/2000/svg">
      <g>
        <path d="M74.8,89.3H63.3c-1.3,0-2.5-1-2.7-2.3l-0.8-5c-5.1,0.5-11,0.6-16.5-0.1L42.6,87c-0.2,1.3-1.4,2.3-2.7,2.3H28.3    c-1.5,0-2.7-1.2-2.7-2.7V76c-4.3-2.6-7.7-6-10.2-10.1L4.4,62.5c-1.1-0.4-1.9-1.4-1.9-2.6V45.7c0-1.2,0.8-2.2,1.9-2.6l8-2.5    c1.9-6.2,5.9-10.5,12.3-13.2c0.8-10.6,3.1-15.9,7.2-16.6c4.2-0.8,8.2,3.4,12.7,13.2c2-0.1,4.3-0.1,6.7-0.1    c26.7,0,40.2,9.8,40.2,29.3c0,11.3-4.7,19.4-13.9,24.2v9.2C77.6,88.1,76.3,89.3,74.8,89.3z M65.6,83.9h6.5v-8.2    c0-1.1,0.6-2,1.6-2.5C82,69.4,86,62.8,86,53.1c0-5.9,0-23.8-34.7-23.8c-3.1,0-5.9,0.1-8.3,0.2c-1.2,0.1-2.2-0.6-2.6-1.6    c-4-9.3-6.8-11.6-7.5-11.7c-0.5,0.3-2.3,3.4-2.8,13.3c-0.1,1.1-0.8,2.1-1.8,2.4c-6.1,2.2-9.6,5.8-10.9,11.5    c-0.2,0.9-0.9,1.7-1.8,2L8,47.7v10.2l10.2,3.2c0.7,0.2,1.2,0.7,1.6,1.3c2.2,4,5.5,7.3,10,9.7c0.9,0.5,1.4,1.4,1.4,2.4v9.4h6.5    l0.8-5.5c0.1-0.7,0.5-1.4,1.1-1.8c0.6-0.4,1.3-0.6,2.1-0.5c6.7,1.2,14.2,1,20.2,0.2c1.5-0.2,2.8,0.8,3.1,2.3L65.6,83.9z"></path>
      </g>
      <path d="M88.5,46.1c-0.3,0-0.6,0-0.9-0.1c-1-0.2-1.6-1.2-1.4-2.2c0.2-1,1.2-1.6,2.2-1.4c0.6,0.1,1.5-0.6,2.3-1.8   c2.1-3.2,3.2-7,3.2-10.8c0-1,0.9-1.8,1.8-1.8c1,0,1.8,0.8,1.8,1.8c0,4.5-1.4,9-3.8,12.8C92.2,44.8,90.4,46.1,88.5,46.1z"></path>
    </g>
  </g>
  <g id="SvgjsG1371" featurekey="nameFeature-0" transform="matrix(1.4492753623188406,0,0,1.4492753623188406,120,-0.463766236236129)" fill="#FF5876">
    <path d="M3.8 34 l0 5.96 l-3.8 0 l0 -28.52 l5.92 0 c2.64 0 4.76 2.16 4.76 4.8 l0 13 c0 2.64 -2.12 4.76 -4.76 4.76 l-2.12 0 z M3.8 15.239999999999998 l0 14.96 l2.12 0 c0.56 0 0.96 -0.4 0.96 -0.96 l0 -13 c0 -0.56 -0.4 -1 -0.96 -1 l-2.12 0 z M18.08 40.04 c-3 0 -5.4 -2.44 -5.4 -5.4 l0 -11.88 c0 -2.96 2.4 -5.4 5.4 -5.4 c2.96 0 5.36 2.44 5.36 5.4 l0 11.88 c0 2.96 -2.4 5.4 -5.36 5.4 z M18.08 21.2 c-0.88 0 -1.56 0.72 -1.56 1.56 l0 11.88 c0 0.88 0.68 1.56 1.56 1.56 c0.84 0 1.56 -0.68 1.56 -1.56 l0 -11.88 c0 -0.84 -0.72 -1.56 -1.56 -1.56 z M31.24 18.28 c2.72 0 4.92 2.16 4.92 4.88 l0 1.92 l-3.8 0 l0 -1.92 c0 -0.64 -0.48 -1.12 -1.12 -1.12 l-0.84 0 c-0.6 0 -1.12 0.48 -1.12 1.12 l-0.08 16.88 l-3.76 0 l0.08 -16.88 l0 -5.76 l3.76 0 l0 1 c0.36 -0.08 0.76 -0.12 1.12 -0.12 l0.84 0 z M45.16 22.96 l5.04 17 l-3.92 0 l-3.96 -14.12 l-0.36 0.48 l0 13.6 l-0.2 0.08 l-3.6 0 l0 -28.56 l3.8 0 l0 9.56 l2.64 -3.68 l4.36 0 z M60.279999999999994 17.36 l3.96 0 l-5.64 23.4 s-0.88 5.6 -6.2 5.72 l-0.16 0 l0 0 l0 0 l0 0 l0 -3.88 c0.4 0 0.84 -0.12 1.24 -0.32 c0 0 1.92 -0.56 1.52 -4 l-5.04 -20.92 l4 0 l3.16 13.08 z M78.03999999999999 34 l0 5.96 l-3.8 0 l0 -28.52 l5.92 0 c2.64 0 4.76 2.16 4.76 4.8 l0 13 c0 2.64 -2.12 4.76 -4.76 4.76 l-2.12 0 z M78.03999999999999 15.239999999999998 l0 14.96 l2.12 0 c0.56 0 0.96 -0.4 0.96 -0.96 l0 -13 c0 -0.56 -0.4 -1 -0.96 -1 l-2.12 0 z M92.71999999999998 18.28 c2.72 0 4.92 2.16 4.92 4.88 l0 1.92 l-3.8 0 l0 -1.92 c0 -0.64 -0.48 -1.12 -1.12 -1.12 l-0.84 0 c-0.6 0 -1.12 0.48 -1.12 1.12 l-0.08 16.88 l-3.76 0 l0.08 -16.88 l0 -5.76 l3.76 0 l0 1 c0.36 -0.08 0.76 -0.12 1.12 -0.12 l0.84 0 z M103.23999999999998 39.88 c0.04 -6.28 0.04 -16.32 0 -22.52 l-3.8 0.04 c0.04 6.16 0.04 16.16 0 22.44 z M99.43999999999998 12.600000000000001 l3.8 0 l0 3.72 l-3.8 0 l0 -3.72 z M110.07999999999998 17.36 c2.64 0 4.8 2.16 4.8 4.8 l0 18 l-3.84 0 l0 -18 c0 -0.52 -0.44 -0.96 -0.96 -0.96 s-0.96 0.44 -0.96 0.96 l0 18 l-3.84 0 l0 -23.52 l3.84 0 l0 0.84 c0.32 -0.08 0.64 -0.12 0.96 -0.12 z M125.27999999999997 21.2 l-2.72 0 l0 12.76 c0 1.2 1 2.16 2.2 2.16 l0 3.84 c-3.32 0 -6 -2.68 -6 -6 l0 -12.76 l-2.72 0 l0 -3.84 l2.72 0 l0 -6 l3.8 0 l0 6 l2.72 0 l0 3.84 z M132.64 39.96 c-2.96 0 -5.36 -2.4 -5.36 -5.36 l0 -3.12 l3.8 0 l0 3.12 c0 0.88 0.72 1.56 1.56 1.56 c0.88 0 1.56 -0.68 1.56 -1.56 l0 -1.72 l-6.92 -7.16 l0 -3.16 c0 -2.96 2.4 -5.4 5.36 -5.4 s5.36 2.44 5.36 5.4 l0 2.48 l-3.8 0 l0 -2.48 c0 -0.88 -0.68 -1.56 -1.56 -1.56 c-0.84 0 -1.56 0.68 -1.56 1.56 l0 1.6 l6.92 7.2 l0 3.24 c0 2.96 -2.4 5.36 -5.36 5.36 z"></path>
  </g>
</svg>